<?xml version="1.0" encoding="UTF-8" standalone="no"?>
<!-- Created with Inkscape (http://www.inkscape.org/) -->

<svg
   xmlns:dc="http://purl.org/dc/elements/1.1/"
   xmlns:cc="http://creativecommons.org/ns#"
   xmlns:rdf="http://www.w3.org/1999/02/22-rdf-syntax-ns#"
   xmlns:svg="http://www.w3.org/2000/svg"
   xmlns="http://www.w3.org/2000/svg"
   xmlns:sodipodi="http://sodipodi.sourceforge.net/DTD/sodipodi-0.dtd"
   xmlns:inkscape="http://www.inkscape.org/namespaces/inkscape"
   width="128"
   height="128"
   viewBox="0 0 128 128"
   id="svg4221"
   version="1.1"
   inkscape:version="0.91 r13725"
   sodipodi:docname="blogger.svg"
   inkscape:export-filename="C:\Users\Luiz\Pictures\Zona Fantasma\avatar.png"
   inkscape:export-xdpi="360"
   inkscape:export-ydpi="360">
  <defs
     id="defs4223" />
  <sodipodi:namedview
     id="base"
     pagecolor="#ffffff"
     bordercolor="#666666"
     borderopacity="1.0"
     inkscape:pageopacity="0.0"
     inkscape:pageshadow="2"
     inkscape:zoom="4.1875"
     inkscape:cx="64"
     inkscape:cy="64"
     inkscape:document-units="px"
     inkscape:current-layer="layer1"
     showgrid="true"
     units="px"
     inkscape:window-width="1366"
     inkscape:window-height="705"
     inkscape:window-x="-8"
     inkscape:window-y="-8"
     inkscape:window-maximized="1"
     showguides="false" />
  <metadata
     id="metadata4226">
    <rdf:RDF>
      <cc:Work
         rdf:about="">
        <dc:format>image/svg+xml</dc:format>
        <dc:type
           rdf:resource="http://purl.org/dc/dcmitype/StillImage" />
        <dc:title></dc:title>
      </cc:Work>
    </rdf:RDF>
  </metadata>
  <g
     inkscape:label="Camada 1"
     inkscape:groupmode="layer"
     id="layer1"
     transform="translate(0,-924.36216)"
     style="display:inline">
    <rect
       style="opacity:1;fill:#ffffff;fill-opacity:1;stroke:none;stroke-width:0.5;stroke-miterlimit:4;stroke-dasharray:none;stroke-opacity:1"
       id="rect4771"
       width="128"
       height="128"
       x="0"
       y="924.36218"
       ry="0" />
    <rect
       ry="0"
       y="928.36218"
       x="4"
       height="120"
       width="120"
       id="rect4773"
       style="opacity:1;fill:#ff9037;fill-opacity:1;stroke:none;stroke-width:0.5;stroke-miterlimit:4;stroke-dasharray:none;stroke-opacity:1" />
    <path
       style="display:inline;opacity:1;fill:#ffffff;fill-opacity:1;stroke:none;stroke-width:13.50467396;stroke-linecap:round;stroke-linejoin:round;stroke-miterlimit:4;stroke-dasharray:none;stroke-dashoffset:0;stroke-opacity:1"
       d="m 57.15625,25.902344 c -16.56276,0 -29.896484,3.624232 -29.896484,22.599609 l 0,31.833985 c 0,18.975376 13.333724,20.910152 29.896484,20.910152 21.90569,0.71948 34.485279,-0.30681 40.849609,-11.718746 8.138001,-14.592358 5.333711,-35.12358 -10.953125,-34.521485 l 0,-6.503906 c 0,-18.975377 -13.333714,-22.599609 -29.896484,-22.599609 z m -5.8125,15.65039 14.566406,0 c 3.70436,0 6.6875,2.983141 6.6875,6.6875 0,3.704358 -2.98314,6.685547 -6.6875,6.685547 l -14.566406,0 c -3.70436,0 -6.6875,-2.981189 -6.6875,-6.685547 0,-3.704359 2.98314,-6.6875 6.6875,-6.6875 z m -2.269531,29.84961 30.328125,0 c 3.50591,0 6.328125,2.822214 6.328125,6.328125 0,3.50591 -2.822215,6.330078 -6.328125,6.330078 l -30.328125,0 c -3.505911,0 -6.328125,-2.824168 -6.328125,-6.330078 0,-3.505911 2.822214,-6.328125 6.328125,-6.328125 z"
       id="rect4161"
       inkscape:connector-curvature="0"
       transform="translate(0,924.36216)" />
  </g>
</svg>
